<svg width="112" height="160" viewBox="0 0 112 160" fill="none" xmlns="http://www.w3.org/2000/svg">
<path d="M108.184 143.762C108.184 145.708 106.881 147.66 104.288 149.519C101.707 151.369 97.9398 153.055 93.2398 154.48C83.8462 157.328 70.8389 159.096 56.4499 159.096C42.0609 159.096 29.0536 157.328 19.66 154.48C14.96 153.055 11.193 151.369 8.61202 149.519C6.01893 147.66 4.71594 145.708 4.71594 143.762C4.71594 141.815 6.01893 139.863 8.61202 138.004C11.193 136.155 14.96 134.468 19.66 133.043C29.0536 130.196 42.0609 128.427 56.4499 128.427C70.8389 128.427 83.8462 130.196 93.2398 133.043C97.9398 134.468 101.707 136.155 104.288 138.004C106.881 139.863 108.184 141.815 108.184 143.762Z" fill="white" stroke="#79838D"/>
<path d="M1.18497 1.70563C1.11359 1.30611 1.06408 0.976105 1.03059 0.726883L111.349 0.726868C111.316 0.976089 111.266 1.30609 111.195 1.70561C111.021 2.67761 110.718 4.05957 110.203 5.68921C109.172 8.95032 107.292 13.1906 103.903 17.1243C102.265 19.0257 100.102 20.1106 97.7238 20.8771C96.5343 21.2603 95.3003 21.5611 94.058 21.8465C93.7848 21.9093 93.5108 21.9714 93.2367 22.0335C92.2712 22.2523 91.3054 22.4712 90.3745 22.719C87.9884 23.3543 85.727 24.204 84.0688 25.85C82.3909 27.5155 81.3913 29.9323 81.3913 33.5673C81.3913 47.5345 73.3275 58.5995 69.7684 62.6924C68.0364 64.6842 66.0399 65.8555 64.473 66.529C63.6902 66.8655 63.0173 67.0765 62.5429 67.203C62.3058 67.2662 62.1187 67.3081 61.9927 67.334C61.9296 67.3469 61.882 67.3558 61.851 67.3614L61.8172 67.3672L61.81 67.3684L61.8095 67.3684L61.8092 67.3685L61.809 67.3685L61.8089 67.3685L61.3854 67.4335V67.8627L61.3854 134.306L60.8027 128.811L60.7553 128.364H60.3055H52.0693H51.6194L51.5721 128.812L50.9944 134.276L50.9944 67.8627V67.4335L50.5708 67.3685L50.5707 67.3685L50.5705 67.3685L50.5702 67.3684L50.5697 67.3684L50.5626 67.3672L50.5288 67.3614C50.4978 67.3558 50.4501 67.3469 50.3871 67.334C50.261 67.3081 50.0739 67.2662 49.8368 67.203C49.3624 67.0766 48.6895 66.8655 47.9067 66.529C46.3398 65.8555 44.3433 64.6842 42.6113 62.6924C39.0522 58.5995 30.9884 47.5345 30.9884 33.5673C30.9884 29.9323 29.9888 27.5155 28.3109 25.85C26.6527 24.204 24.3913 23.3543 22.0052 22.7191C21.0743 22.4712 20.1085 22.2523 19.143 22.0335C18.869 21.9714 18.5949 21.9093 18.3217 21.8465C17.0794 21.5611 15.8454 21.2604 14.6559 20.8771C12.2774 20.1106 10.1144 19.0257 8.47626 17.1243C5.08722 13.1906 3.20818 8.95032 2.17677 5.68922C1.66135 4.05959 1.3586 2.67763 1.18497 1.70563Z" stroke="#79838D"/>
<path d="M61.3247 60.0588H51.0551L51.0515 60.0582C51.0237 60.0533 50.9807 60.0454 50.9237 60.0339C50.8098 60.011 50.6405 59.9737 50.4258 59.9176C49.9961 59.8052 49.3864 59.6175 48.6771 59.3182C47.2569 58.7191 45.4489 57.6776 43.8811 55.908C40.6745 52.2885 34.3325 42.4285 34.3325 29.9669C34.3325 26.7009 33.3504 24.5254 31.7146 23.0304C30.1044 21.559 27.9173 20.8016 25.626 20.2357C24.7447 20.0181 23.8323 19.8254 22.922 19.6332C22.6458 19.5748 22.3698 19.5166 22.0949 19.4576C20.9076 19.2031 19.7326 18.9348 18.6061 18.5931C16.3509 17.909 14.3363 16.9434 12.8595 15.2609C9.76368 11.7339 8.05862 8.68738 7.12876 6.5355C6.66368 5.45921 6.39209 4.60571 6.23744 4.0266C6.20809 3.9167 6.18295 3.81667 6.16149 3.72687L106.218 3.72686C106.197 3.81666 106.172 3.91669 106.142 4.02659C105.988 4.60569 105.716 5.4592 105.251 6.53549C104.321 8.68736 102.616 11.7339 99.5202 15.2609C98.0434 16.9434 96.0288 17.909 93.7737 18.5931C92.6472 18.9348 91.4722 19.2031 90.2848 19.4576C90.0099 19.5165 89.734 19.5748 89.4578 19.6331C88.5475 19.8254 87.635 20.0181 86.7538 20.2357C84.4625 20.8016 82.2753 21.5589 80.6652 23.0304C79.0293 24.5254 78.0472 26.7009 78.0472 29.9669C78.0472 42.4285 71.7052 52.2884 68.4986 55.908C66.9308 57.6776 65.1228 58.7191 63.7027 59.3182C62.9933 59.6175 62.3836 59.8052 61.954 59.9176C61.7393 59.9737 61.5699 60.011 61.456 60.0339C61.3991 60.0454 61.3561 60.0533 61.3282 60.0582L61.3247 60.0588Z" stroke="#F3F9FF"/>
<path d="M43.5068 56.2395C46.7665 59.9189 51.0138 60.5588 51.0138 60.5588H61.3659C61.3659 60.5588 65.6132 59.9189 68.8728 56.2395C72.1325 52.5602 78.5472 42.5872 78.5472 29.9669C78.5472 17.3466 93.6348 22.7239 99.896 15.5907C106.157 8.45749 104.828 7.22686 104.828 7.22686L7.5517 7.22687C7.5517 7.22687 6.22253 8.4575 12.4837 15.5907C18.7449 22.7239 33.8325 17.3466 33.8325 29.9669C33.8325 42.5872 40.2472 52.5602 43.5068 56.2395Z" fill="white" fill-opacity="0.75"/>
</svg>
