<svg width="134" height="180" viewBox="0 0 134 180" fill="none" xmlns="http://www.w3.org/2000/svg">
<path d="M43.7087 76.4022C46.9684 80.0815 51.2157 80.7214 51.2157 80.7214H61.5678C61.5678 80.7214 65.8151 80.0815 69.0747 76.4022C72.3344 72.7228 78.7491 62.7499 78.7491 50.1295C78.7491 37.5092 93.8367 42.8866 100.098 35.7534C106.359 28.6201 105.03 27.3895 105.03 27.3895L7.7536 27.3895C7.7536 27.3895 6.42444 28.6202 12.6856 35.7534C18.9468 42.8866 34.0344 37.5092 34.0344 50.1296C34.0344 62.7499 40.4491 72.7229 43.7087 76.4022Z" fill="#F4FFC9" fill-opacity="0.75"/>
<path d="M128.105 30.9187C127.443 33.389 118.066 29.9732 106.221 26.7992C94.3751 23.6252 84.0609 23.7075 85.2084 19.4246C88.0318 8.88775 99.9233 2.91899 111.769 6.093C123.614 9.267 130.928 20.3818 128.105 30.9187Z" fill="#599E00"/>
<path d="M126.083 30.8621C125.544 32.8743 116.976 29.8428 106.18 26.9501C95.3844 24.0574 86.0531 23.8752 86.9879 20.3866C89.2876 11.8037 99.9037 7.19091 110.7 10.0836C121.495 12.9764 128.383 22.2792 126.083 30.8621Z" fill="#C0E195"/>
<path d="M108.386 163.924C108.386 165.871 107.083 167.823 104.49 169.681C101.909 171.531 98.1417 173.218 93.4417 174.643C84.0481 177.49 71.0408 179.259 56.6518 179.259C42.2628 179.259 29.2555 177.49 19.8619 174.643C15.1619 173.218 11.3949 171.531 8.81392 169.681C6.22083 167.823 4.91785 165.871 4.91785 163.924C4.91785 161.978 6.22083 160.026 8.81392 158.167C11.3949 156.317 15.1619 154.631 19.8619 153.206C29.2555 150.358 42.2628 148.59 56.6518 148.59C71.0408 148.59 84.0481 150.358 93.4417 153.206C98.1417 154.631 101.909 156.317 104.49 158.167C107.083 160.026 108.386 161.978 108.386 163.924Z" fill="white" fill-opacity="0.4" stroke="#79838D"/>
<path d="M1.38687 21.8683C1.3155 21.4688 1.26598 21.1388 1.23249 20.8895L111.551 20.8895C111.518 21.1387 111.468 21.4688 111.397 21.8683C111.223 22.8403 110.92 24.2222 110.405 25.8519C109.373 29.113 107.494 33.3533 104.105 37.287C102.467 39.1884 100.304 40.2733 97.9257 41.0397C96.7362 41.423 95.5022 41.7238 94.2599 42.0092C93.9867 42.0719 93.7127 42.134 93.4386 42.1962C92.4731 42.415 91.5073 42.6339 90.5764 42.8817C88.1903 43.517 85.9289 44.3666 84.2707 46.0126C82.5928 47.6782 81.5932 50.095 81.5932 53.7299C81.5932 67.6972 73.5294 78.7621 69.9703 82.8551C68.2383 84.8469 66.2418 86.0182 64.6749 86.6917C63.8921 87.0282 63.2192 87.2392 62.7448 87.3656C62.5077 87.4288 62.3206 87.4708 62.1946 87.4967C62.1316 87.5096 62.0839 87.5185 62.0529 87.524L62.0191 87.5299L62.0119 87.531L62.0114 87.5311L62.0111 87.5312L62.0109 87.5312L62.0108 87.5312L61.5873 87.5962V88.0253L61.5873 154.468L61.0046 148.974L60.9572 148.527H60.5074H52.2712H51.8213L51.774 148.974L51.1963 154.439L51.1963 88.0253V87.5962L50.7727 87.5312L50.7726 87.5312L50.7724 87.5312L50.7721 87.5311L50.7716 87.531L50.7645 87.5299L50.7307 87.524C50.6997 87.5185 50.652 87.5096 50.589 87.4967C50.4629 87.4708 50.2758 87.4288 50.0387 87.3656C49.5643 87.2392 48.8914 87.0282 48.1086 86.6917C46.5417 86.0182 44.5452 84.8469 42.8132 82.8551C39.2541 78.7621 31.1903 67.6972 31.1903 53.7299C31.1903 50.095 30.1907 47.6782 28.5128 46.0127C26.8546 44.3667 24.5932 43.517 22.2071 42.8817C21.2762 42.6339 20.3104 42.415 19.3449 42.1962C19.0709 42.1341 18.7968 42.0719 18.5236 42.0092C17.2813 41.7238 16.0473 41.423 14.8578 41.0397C12.4793 40.2733 10.3163 39.1884 8.67817 37.287C5.28912 33.3533 3.41009 29.113 2.37867 25.8519C1.86325 24.2222 1.56051 22.8403 1.38687 21.8683Z" fill="white" fill-opacity="0.4" stroke="#79838D"/>
<path d="M61.5266 80.2214H51.257L51.2535 80.2208C51.2256 80.216 51.1826 80.2081 51.1256 80.1966C51.0117 80.1737 50.8424 80.1364 50.6277 80.0802C50.198 79.9679 49.5884 79.7802 48.879 79.4809C47.4588 78.8817 45.6508 77.8403 44.083 76.0706C40.8764 72.4511 34.5344 62.5912 34.5344 50.1296C34.5344 46.8635 33.5524 44.6881 31.9165 43.1931C30.3063 41.7216 28.1192 40.9643 25.8279 40.3984C24.9466 40.1807 24.0342 39.9881 23.1239 39.7958C22.8477 39.7375 22.5717 39.6792 22.2968 39.6203C21.1095 39.3657 19.9345 39.0975 18.808 38.7558C16.5528 38.0717 14.5383 37.1061 13.0614 35.4235C9.96558 31.8965 8.26052 28.85 7.33067 26.6982C6.86559 25.6219 6.59399 24.7684 6.43935 24.1893C6.41 24.0794 6.38485 23.9793 6.3634 23.8895L106.42 23.8895C106.399 23.9793 106.374 24.0793 106.344 24.1893C106.19 24.7684 105.918 25.6219 105.453 26.6981C104.523 28.85 102.818 31.8965 99.7221 35.4235C98.2453 37.1061 96.2307 38.0717 93.9756 38.7558C92.8491 39.0975 91.6741 39.3657 90.4867 39.6203C90.2118 39.6792 89.9359 39.7375 89.6597 39.7958C88.7494 39.988 87.837 40.1807 86.9557 40.3984C84.6644 40.9643 82.4772 41.7216 80.8671 43.1931C79.2312 44.6881 78.2491 46.8635 78.2491 50.1295C78.2491 62.5912 71.9071 72.4511 68.7005 76.0706C67.1327 77.8403 65.3247 78.8817 63.9046 79.4809C63.1952 79.7802 62.5855 79.9678 62.1559 80.0802C61.9412 80.1364 61.7718 80.1737 61.658 80.1966C61.601 80.2081 61.558 80.216 61.5301 80.2208L61.5266 80.2214Z" stroke="#F3F9FF"/>
</svg>
