<svg width="159" height="229" viewBox="0 0 159 229" fill="none" xmlns="http://www.w3.org/2000/svg">
<path d="M131.263 195.666C131.263 197.612 129.96 199.565 127.367 201.423C124.786 203.273 121.019 204.96 116.319 206.384C106.925 209.232 93.9178 211.001 79.5289 211.001C65.1399 211.001 52.1326 209.232 42.7389 206.384C38.039 204.96 34.272 203.273 31.691 201.423C29.0979 199.565 27.7949 197.612 27.7949 195.666C27.7949 193.72 29.0979 191.767 31.691 189.909C34.272 188.059 38.039 186.373 42.7389 184.948C52.1326 182.1 65.1399 180.331 79.5289 180.331C93.9178 180.331 106.925 182.1 116.319 184.948C121.019 186.373 124.786 188.059 127.367 189.909C129.96 191.767 131.263 193.72 131.263 195.666Z" fill="white" fill-opacity="0.4" stroke="#79838D"/>
<path d="M74.0734 103.466V103.272L73.9419 103.128L15.4016 39.2982L143.592 39.2982L84.5972 103.127L84.4644 103.271V103.466L84.4644 186.21L83.8817 180.716L83.8343 180.269H83.3845H75.1483H74.6984L74.6511 180.716L74.0734 186.181L74.0734 103.466Z" fill="white" fill-opacity="0.4" stroke="#79838D"/>
<path d="M79.747 99.9662H78.7921L26.4077 43.2981L132.586 43.2981L79.747 99.9662Z" fill="white" fill-opacity="0.4" stroke="#F3F9FF"/>
<circle cx="79.4999" cy="86.3832" r="8.21035" fill="#F43232"/>
<line x1="125.205" y1="40.4362" x2="109.396" y2="56.2173" stroke="#ABABAB"/>
<path d="M119.589 52.7683C124.294 53.1865 124.034 50.1889 126.321 47.5906C128.607 44.9922 129.973 39.1665 129.89 35.0683C131.795 31.1625 135.32 38.8045 137.933 37.6612C141.874 33.298 128.708 27.1594 127.249 28.3406C125.914 29.4213 124.491 34.4898 125.83 37.1975C124.29 38.6539 125.78 40.0744 124.208 43.2967C122.325 47.1587 122.699 49.7078 119.719 48.1107C116.738 46.5135 111.435 48.3529 106.904 49.4826C102.374 50.6122 102.373 52.6813 101.677 56.4822C100.982 60.283 102.89 61.1141 104.712 61.8301C106.533 62.546 106.224 54.3481 108.331 54.4089C111.487 54.5 113.707 52.2455 119.589 52.7683Z" fill="url(#paint0_linear_41_1136)"/>
<line x1="25.2604" y1="23.4434" x2="57.6479" y2="61.2193" stroke="#ABABAB"/>
<ellipse cx="24.5401" cy="22.3283" rx="2.49072" ry="4.1512" transform="rotate(-35 24.5401 22.3283)" fill="#C4C4C4"/>
<line x1="144.501" y1="22.6315" x2="127.99" y2="37.6225" stroke="#ABABAB"/>
<ellipse cx="145.606" cy="21.9205" rx="2.49072" ry="4.1512" transform="rotate(55 145.606 21.9205)" fill="#C4C4C4"/>
<circle cx="50.8485" cy="52.4287" r="8.21035" fill="url(#paint1_linear_41_1136)"/>
<circle cx="54.2106" cy="55.7907" r="2.84831" fill="#FF6C6C"/>
<path d="M78.5733 100.466L51.9189 71.6322L38.5917 57.2151L31.9281 50.0066L127.014 50.0066L120.293 57.2151L106.85 71.6322L79.9644 100.466H78.5733Z" fill="white" fill-opacity="0.75"/>
<defs>
<linearGradient id="paint0_linear_41_1136" x1="134.712" y1="51.7525" x2="93.1418" y2="62.1171" gradientUnits="userSpaceOnUse">
<stop stop-color="#FFEC42"/>
<stop offset="0.9999" stop-color="#FFC700" stop-opacity="0.911458"/>
<stop offset="1" stop-color="#FFD542" stop-opacity="0"/>
</linearGradient>
<linearGradient id="paint1_linear_41_1136" x1="50.8485" y1="44.2183" x2="50.8485" y2="60.639" gradientUnits="userSpaceOnUse">
<stop stop-color="#90AC6C"/>
<stop offset="1" stop-color="#BAC2A1"/>
</linearGradient>
</defs>
</svg>
