<svg width="159" height="196" viewBox="0 0 159 196" fill="none" xmlns="http://www.w3.org/2000/svg">
<path d="M131.263 168.517C131.263 170.463 129.96 172.415 127.367 174.274C124.786 176.124 121.019 177.81 116.319 179.235C106.925 182.083 93.9178 183.851 79.5289 183.851C65.1399 183.851 52.1326 182.083 42.7389 179.235C38.039 177.81 34.272 176.124 31.691 174.274C29.0979 172.415 27.7949 170.463 27.7949 168.517C27.7949 166.57 29.0979 164.618 31.691 162.759C34.272 160.91 38.039 159.223 42.7389 157.798C52.1326 154.951 65.1399 153.182 79.5289 153.182C93.9178 153.182 106.925 154.951 116.319 157.798C121.019 159.223 124.786 160.91 127.367 162.759C129.96 164.618 131.263 166.57 131.263 168.517Z" fill="white" stroke="#79838D"/>
<path d="M74.0734 76.3168V76.1222L73.9419 75.9788L15.4016 12.1487L143.592 12.1487L84.5972 75.9774L84.4644 76.1211V76.3168L84.4644 159.061L83.8817 153.566L83.8343 153.119H83.3845H75.1483H74.6984L74.6511 153.567L74.0734 159.031L74.0734 76.3168Z" fill="white" stroke="#79838D"/>
<path d="M79.747 72.8168H78.7921L26.4077 16.1487L132.586 16.1487L79.747 72.8168Z" stroke="#F3F9FF"/>
<circle cx="79.5" cy="59.2338" r="8.21035" fill="#F43232"/>
<path d="M78.5733 73.3168L51.9189 44.4827L38.5917 30.0657L31.9281 22.8572L127.014 22.8572L120.293 30.0657L106.85 44.4827L79.9644 73.3168H78.5733Z" fill="white" fill-opacity="0.75"/>
</svg>
