<svg width="148" height="108" viewBox="0 0 148 108" fill="none" xmlns="http://www.w3.org/2000/svg">
<path d="M33.1642 104.669L21.9962 10.4944H128.289L117.121 104.669H33.1642Z" fill="white" stroke="#79838D"/>
<path d="M26.9927 20.1279L123.252 20.1279L112.73 94.3197H37.5558L26.9927 20.1279Z" fill="white" fill-opacity="0.4"/>
<path d="M32.4837 51.4249L119.858 51.4249L113.73 94.3197H38.5557L32.4837 51.4249Z" fill="white" fill-opacity="0.4"/>
<rect width="24.4945" height="17.3196" transform="matrix(0.741809 -0.482913 1.18304 0.182969 37.8135 68.371)" fill="#F9FDFF"/>
<rect width="24.4945" height="17.3196" transform="matrix(0.741809 -0.482913 1.18304 0.182969 37.8135 68.371)" fill="#F9FDFF"/>
<rect width="24.4945" height="17.3196" transform="matrix(0.741809 -0.482913 1.18304 0.182969 37.8135 68.371)" fill="#F9FDFF"/>
<path d="M58.099 71.5399L76.2693 59.7112L76.2693 78.8086L58.099 93.1151L58.099 71.5399Z" fill="#F9FDFF"/>
<path d="M58.099 71.5399L76.2693 59.7112L76.2693 78.8086L58.099 93.1151L58.099 71.5399Z" fill="#F9FDFF"/>
<path d="M58.099 71.5399L76.2693 59.7112L76.2693 78.8086L58.099 93.1151L58.099 71.5399Z" fill="#E9F4FB"/>
<path d="M58.099 71.5399L37.8446 68.3736L37.8447 89.0968L58.099 93.1151L58.099 71.5399Z" fill="#F9FDFF"/>
<path d="M58.099 71.5399L37.8446 68.3736L37.8447 89.0968L58.099 93.1151L58.099 71.5399Z" fill="#F9FDFF"/>
<path d="M58.099 71.5399L37.8446 68.3736L37.8447 89.0968L58.099 93.1151L58.099 71.5399Z" fill="#E2EEF5"/>
<path d="M106.726 82.9712L97.2754 92.3007L76.5664 93.3044L86.017 83.9749L106.726 82.9712Z" fill="#F9FDFF"/>
<path d="M106.726 82.9712L97.2754 92.3007L76.5664 93.3044L86.017 83.9749L106.726 82.9712Z" fill="#F9FDFF"/>
<path d="M106.726 82.9712L97.2754 92.3007L76.5664 93.3044L86.017 83.9749L106.726 82.9712Z" fill="#DDECF5"/>
<path d="M86.217 83.934L76.8848 93.1465L73.0557 74.4369L81.8911 62.7969L86.217 83.934Z" fill="#F9FDFF"/>
<path d="M86.217 83.934L76.8848 93.1465L73.0557 74.4369L81.8911 62.7969L86.217 83.934Z" fill="#F9FDFF"/>
<path d="M86.217 83.934L76.8848 93.1465L73.0557 74.4369L81.8911 62.7969L86.217 83.934Z" fill="#E2EEF5"/>
<path d="M86.217 83.934L106.695 82.9748L102.54 62.6725L81.8911 62.7969L86.217 83.934Z" fill="#F9FDFF"/>
<path d="M86.217 83.934L106.695 82.9748L102.54 62.6725L81.8911 62.7969L86.217 83.934Z" fill="#F9FDFF"/>
<path d="M86.217 83.934L106.695 82.9748L102.54 62.6725L81.8911 62.7969L86.217 83.934Z" fill="#E9F4FB"/>
<path d="M87.2237 38.4848L100.073 35.1305L118.509 44.6158L105.66 47.9701L87.2237 38.4848Z" fill="#F9FDFF"/>
<path d="M87.2237 38.4848L100.073 35.1305L118.509 44.6158L105.66 47.9701L87.2237 38.4848Z" fill="#F9FDFF"/>
<path d="M87.2237 38.4848L100.073 35.1305L118.509 44.6158L105.66 47.9701L87.2237 38.4848Z" fill="#F9FDFF"/>
<path d="M105.466 47.9055L118.155 44.5933L112.116 62.7108L98.6442 68.3737L105.466 47.9055Z" fill="#F9FDFF"/>
<path d="M105.466 47.9055L118.155 44.5933L112.116 62.7108L98.6442 68.3737L105.466 47.9055Z" fill="#F9FDFF"/>
<path d="M105.466 47.9055L118.155 44.5933L112.116 62.7108L98.6442 68.3737L105.466 47.9055Z" fill="#E9F4FB"/>
<path d="M105.466 47.9055L87.2524 38.4971L80.6997 58.1571L98.6442 68.3737L105.466 47.9055Z" fill="#F9FDFF"/>
<path d="M105.466 47.9055L87.2524 38.4971L80.6997 58.1571L98.6442 68.3737L105.466 47.9055Z" fill="#F9FDFF"/>
<path d="M105.466 47.9055L87.2524 38.4971L80.6997 58.1571L98.6442 68.3737L105.466 47.9055Z" fill="#E2EEF5"/>
<path d="M51.3261 65.2414L47.9718 52.3921L57.457 33.9557L60.8113 46.8049L51.3261 65.2414Z" fill="#F9FDFF"/>
<path d="M51.3261 65.2414L47.9718 52.3921L57.457 33.9557L60.8113 46.8049L51.3261 65.2414Z" fill="#F9FDFF"/>
<path d="M51.3261 65.2414L47.9718 52.3921L57.457 33.9557L60.8113 46.8049L51.3261 65.2414Z" fill="#F9FDFF"/>
<path d="M60.7468 46.9987L57.4346 34.3105L75.5521 40.3492L81.2149 53.8208L60.7468 46.9987Z" fill="#F9FDFF"/>
<path d="M60.7468 46.9987L57.4346 34.3105L75.5521 40.3492L81.2149 53.8208L60.7468 46.9987Z" fill="#F9FDFF"/>
<path d="M60.7468 46.9987L57.4346 34.3105L75.5521 40.3492L81.2149 53.8208L60.7468 46.9987Z" fill="#E9F4FB"/>
<path d="M60.7468 46.9987L51.3384 65.2127L70.9984 71.7653L81.215 53.8208L60.7468 46.9987Z" fill="#F9FDFF"/>
<path d="M60.7468 46.9987L51.3384 65.2127L70.9984 71.7653L81.215 53.8208L60.7468 46.9987Z" fill="#F9FDFF"/>
<path d="M60.7468 46.9987L51.3384 65.2127L70.9984 71.7653L81.215 53.8208L60.7468 46.9987Z" fill="#E2EEF5"/>
<path d="M66.8956 47.4845C62.1722 47.4086 56.9865 41.7433 54.984 38.9202C54.2475 38.1688 52.9021 35.6493 53.4129 31.5822C54.8357 30.8918 57.9408 30.3304 58.978 33.6077C60.2745 37.7043 62.4253 39.4538 65.5565 38.1769C68.6876 36.9001 76.4017 38.0162 80.7896 39.6133C85.1775 41.2103 90.2415 49.9405 90.536 53.7933C90.8305 57.646 84.5701 62.8586 82.6835 63.3801C80.7969 63.9017 79.3459 61.5612 78.7796 58.4553C78.2133 55.3494 72.7998 47.5794 66.8956 47.4845Z" fill="url(#paint0_linear_17_197)"/>
<line x1="40.0824" y1="6.17071" x2="72.4699" y2="43.9466" stroke="#ABABAB"/>
<ellipse cx="39.362" cy="5.05558" rx="2.49072" ry="4.1512" transform="rotate(-35 39.362 5.05558)" fill="#C4C4C4"/>
<circle cx="65.6705" cy="35.156" r="8.21035" fill="url(#paint1_linear_17_197)"/>
<path d="M31.4837 51.4249L118.858 51.4249L112.73 94.3197H37.5557L31.4837 51.4249Z" fill="white" fill-opacity="0.4"/>
<path d="M26.9927 20.1279L123.252 20.1279L112.73 94.3197H37.5558L26.9927 20.1279Z" fill="white" fill-opacity="0.4"/>
<path d="M25.5557 9.99439H124.73L112.73 94.3197H37.5557L25.5557 9.99439Z" fill="url(#paint2_linear_17_197)"/>
<path d="M37.9896 93.8197L26.1319 10.4944H124.154L112.296 93.8197H37.9896Z" stroke="#D2D2D2" stroke-opacity="0.5"/>
<defs>
<linearGradient id="paint0_linear_17_197" x1="50.2647" y1="40.2317" x2="90.5236" y2="54.8848" gradientUnits="userSpaceOnUse">
<stop stop-color="#FFEC42"/>
<stop offset="0.9999" stop-color="#FFC700" stop-opacity="0.911458"/>
<stop offset="1" stop-color="#FFD542" stop-opacity="0"/>
</linearGradient>
<linearGradient id="paint1_linear_17_197" x1="65.6705" y1="26.9456" x2="65.6705" y2="43.3663" gradientUnits="userSpaceOnUse">
<stop stop-color="#F43232"/>
<stop offset="1" stop-color="#FF0000"/>
</linearGradient>
<linearGradient id="paint2_linear_17_197" x1="32.7972" y1="54.2674" x2="114.441" y2="53.257" gradientUnits="userSpaceOnUse">
<stop stop-color="white" stop-opacity="0.03"/>
<stop offset="0.200587" stop-color="white" stop-opacity="0.1"/>
<stop offset="0.380986" stop-color="white" stop-opacity="0.47"/>
<stop offset="0.787253" stop-color="white" stop-opacity="0.42"/>
<stop offset="1" stop-color="white" stop-opacity="0.08"/>
</linearGradient>
</defs>
</svg>
