<svg width="151" height="123" viewBox="0 0 151 123" fill="none" xmlns="http://www.w3.org/2000/svg">
<path d="M35.7485 119.058L24.5805 24.884H130.874L119.706 119.058H35.7485Z" fill="white" fill-opacity="0.4" stroke="#79838D"/>
<path d="M29.577 34.5174L125.836 34.5174L115.314 108.709H40.1401L29.577 34.5174Z" fill="white" fill-opacity="0.4"/>
<path d="M35.068 65.8145L122.442 65.8145L116.314 108.709H41.14L35.068 65.8145Z" fill="white" fill-opacity="0.4"/>
<rect width="24.4945" height="17.3196" transform="matrix(0.741809 -0.482913 1.18304 0.182969 40.3978 82.7605)" fill="#F9FDFF"/>
<rect width="24.4945" height="17.3196" transform="matrix(0.741809 -0.482913 1.18304 0.182969 40.3978 82.7605)" fill="#F9FDFF"/>
<rect width="24.4945" height="17.3196" transform="matrix(0.741809 -0.482913 1.18304 0.182969 40.3978 82.7605)" fill="#F9FDFF"/>
<path d="M60.6834 85.9294L78.8536 74.1007L78.8536 93.1981L60.6834 107.505L60.6834 85.9294Z" fill="#F9FDFF"/>
<path d="M60.6834 85.9294L78.8536 74.1007L78.8536 93.1981L60.6834 107.505L60.6834 85.9294Z" fill="#F9FDFF"/>
<path d="M60.6834 85.9294L78.8536 74.1007L78.8536 93.1981L60.6834 107.505L60.6834 85.9294Z" fill="#E9F4FB"/>
<path d="M60.6833 85.9294L40.4289 82.7631L40.429 103.486L60.6833 107.505L60.6833 85.9294Z" fill="#F9FDFF"/>
<path d="M60.6833 85.9294L40.4289 82.7631L40.429 103.486L60.6833 107.505L60.6833 85.9294Z" fill="#F9FDFF"/>
<path d="M60.6833 85.9294L40.4289 82.7631L40.429 103.486L60.6833 107.505L60.6833 85.9294Z" fill="#E2EEF5"/>
<path d="M109.31 97.3607L99.8597 106.69L79.1507 107.694L88.6014 98.3644L109.31 97.3607Z" fill="#F9FDFF"/>
<path d="M109.31 97.3607L99.8597 106.69L79.1507 107.694L88.6014 98.3644L109.31 97.3607Z" fill="#F9FDFF"/>
<path d="M109.31 97.3607L99.8597 106.69L79.1507 107.694L88.6014 98.3644L109.31 97.3607Z" fill="#DDECF5"/>
<path d="M88.8014 98.3235L79.4692 107.536L75.6401 88.8265L84.4755 77.1865L88.8014 98.3235Z" fill="#F9FDFF"/>
<path d="M88.8014 98.3235L79.4692 107.536L75.6401 88.8265L84.4755 77.1865L88.8014 98.3235Z" fill="#F9FDFF"/>
<path d="M88.8014 98.3235L79.4692 107.536L75.6401 88.8265L84.4755 77.1865L88.8014 98.3235Z" fill="#E2EEF5"/>
<path d="M88.8014 98.3235L109.279 97.3644L105.124 77.0621L84.4754 77.1865L88.8014 98.3235Z" fill="#F9FDFF"/>
<path d="M88.8014 98.3235L109.279 97.3644L105.124 77.0621L84.4754 77.1865L88.8014 98.3235Z" fill="#F9FDFF"/>
<path d="M88.8014 98.3235L109.279 97.3644L105.124 77.0621L84.4754 77.1865L88.8014 98.3235Z" fill="#E9F4FB"/>
<path d="M89.8081 52.8744L102.657 49.5201L121.094 59.0053L108.245 62.3596L89.8081 52.8744Z" fill="#F9FDFF"/>
<path d="M89.8081 52.8744L102.657 49.5201L121.094 59.0053L108.245 62.3596L89.8081 52.8744Z" fill="#F9FDFF"/>
<path d="M89.8081 52.8744L102.657 49.5201L121.094 59.0053L108.245 62.3596L89.8081 52.8744Z" fill="#F9FDFF"/>
<path d="M108.051 62.295L120.739 58.9828L114.7 77.1004L101.229 82.7632L108.051 62.295Z" fill="#F9FDFF"/>
<path d="M108.051 62.295L120.739 58.9828L114.7 77.1004L101.229 82.7632L108.051 62.295Z" fill="#F9FDFF"/>
<path d="M108.051 62.295L120.739 58.9828L114.7 77.1004L101.229 82.7632L108.051 62.295Z" fill="#E9F4FB"/>
<path d="M108.051 62.295L89.8368 52.8867L83.2841 72.5466L101.229 82.7632L108.051 62.295Z" fill="#F9FDFF"/>
<path d="M108.051 62.295L89.8368 52.8867L83.2841 72.5466L101.229 82.7632L108.051 62.295Z" fill="#F9FDFF"/>
<path d="M108.051 62.295L89.8368 52.8867L83.2841 72.5466L101.229 82.7632L108.051 62.295Z" fill="#E2EEF5"/>
<path d="M53.9104 79.6309L50.5561 66.7816L60.0414 48.3452L63.3957 61.1945L53.9104 79.6309Z" fill="#F9FDFF"/>
<path d="M53.9104 79.6309L50.5561 66.7816L60.0414 48.3452L63.3957 61.1945L53.9104 79.6309Z" fill="#F9FDFF"/>
<path d="M53.9104 79.6309L50.5561 66.7816L60.0414 48.3452L63.3957 61.1945L53.9104 79.6309Z" fill="#F9FDFF"/>
<path d="M63.3311 61.3882L60.0189 48.7L78.1364 54.7387L83.7993 68.2104L63.3311 61.3882Z" fill="#F9FDFF"/>
<path d="M63.3311 61.3882L60.0189 48.7L78.1364 54.7387L83.7993 68.2104L63.3311 61.3882Z" fill="#F9FDFF"/>
<path d="M63.3311 61.3882L60.0189 48.7L78.1364 54.7387L83.7993 68.2104L63.3311 61.3882Z" fill="#E9F4FB"/>
<path d="M63.3311 61.3882L53.9227 79.6022L73.5826 86.1549L83.7993 68.2104L63.3311 61.3882Z" fill="#F9FDFF"/>
<path d="M63.3311 61.3882L53.9227 79.6022L73.5826 86.1549L83.7993 68.2104L63.3311 61.3882Z" fill="#F9FDFF"/>
<path d="M63.3311 61.3882L53.9227 79.6022L73.5826 86.1549L83.7993 68.2104L63.3311 61.3882Z" fill="#E2EEF5"/>
<circle cx="24.0175" cy="24.2743" r="23.6051" fill="#FFB800"/>
<circle cx="24.0175" cy="24.2742" r="21.6582" fill="#FFE297"/>
<path d="M69.48 61.8741C64.7566 61.7981 59.5709 56.1329 57.5684 53.3098C56.8319 52.5584 55.4865 50.0389 55.9973 45.9717C57.4201 45.2814 60.5252 44.72 61.5624 47.9973C62.8589 52.0939 65.0098 53.8434 68.1409 52.5665C71.272 51.2896 78.9861 52.4058 83.374 54.0028C87.7619 55.5999 92.8259 64.3301 93.1204 68.1828C93.4149 72.0356 87.1545 77.2481 85.2679 77.7697C83.3813 78.2913 81.9303 75.9508 81.364 72.8449C80.7977 69.739 75.3842 61.969 69.48 61.8741Z" fill="url(#paint0_linear_41_1099)"/>
<line x1="42.6668" y1="20.5603" x2="75.0543" y2="58.3361" stroke="#ABABAB"/>
<ellipse cx="41.9465" cy="19.4452" rx="2.49072" ry="4.1512" transform="rotate(-35 41.9465 19.4452)" fill="#C4C4C4"/>
<circle cx="68.2549" cy="49.5455" r="8.21035" fill="url(#paint1_linear_41_1099)"/>
<path d="M76.4496 66.6207C73.3553 70.1902 65.6821 70.5212 62.2323 70.2405C61.1833 70.3217 58.3885 69.7328 55.6011 66.7273C55.9869 65.1935 57.5527 62.4541 60.73 63.7661C64.7016 65.4062 67.4243 64.8831 68.4588 61.6638C69.4933 58.4444 75.3069 53.2525 79.3508 50.9178C83.3947 48.583 93.3374 50.3154 96.4781 52.5663C99.6188 54.8172 99.5878 62.9635 98.7746 64.744C97.9615 66.5245 95.2359 66.1316 92.4926 64.5689C89.7493 63.0063 80.3174 62.1589 76.4496 66.6207Z" fill="url(#paint2_linear_41_1099)"/>
<path d="M34.068 65.8145L121.442 65.8145L115.314 108.709H40.14L34.068 65.8145Z" fill="white" fill-opacity="0.4"/>
<path d="M29.577 34.5174L125.836 34.5174L115.314 108.709H40.1401L29.577 34.5174Z" fill="white" fill-opacity="0.4"/>
<path d="M28.14 25.384H127.314L115.314 109.709H40.14L28.14 25.384Z" fill="url(#paint3_linear_41_1099)"/>
<path d="M40.5739 109.209L28.7162 25.884H126.738L114.88 109.209H40.5739Z" stroke="#D2D2D2" stroke-opacity="0.5"/>
<path d="M35.7485 119.058L24.5805 24.884H130.874L119.706 119.058H35.7485Z" stroke="#79838D"/>
<defs>
<linearGradient id="paint0_linear_41_1099" x1="52.8491" y1="54.6213" x2="93.108" y2="69.2743" gradientUnits="userSpaceOnUse">
<stop stop-color="#FF9D42"/>
<stop offset="0.9999" stop-color="#FFC700" stop-opacity="0.911458"/>
<stop offset="1" stop-color="#FFD542" stop-opacity="0"/>
</linearGradient>
<linearGradient id="paint1_linear_41_1099" x1="68.2549" y1="41.3352" x2="68.2549" y2="57.7559" gradientUnits="userSpaceOnUse">
<stop stop-color="#F43232"/>
<stop offset="1" stop-color="#FF0000"/>
</linearGradient>
<linearGradient id="paint2_linear_41_1099" x1="60.2035" y1="74.6987" x2="97.3063" y2="53.2774" gradientUnits="userSpaceOnUse">
<stop stop-color="#FFEC42"/>
<stop offset="0.9999" stop-color="#FFC700" stop-opacity="0.911458"/>
<stop offset="1" stop-color="#FFD542" stop-opacity="0"/>
</linearGradient>
<linearGradient id="paint3_linear_41_1099" x1="35.3815" y1="69.657" x2="117.025" y2="68.6466" gradientUnits="userSpaceOnUse">
<stop stop-color="white" stop-opacity="0.03"/>
<stop offset="0.200587" stop-color="white" stop-opacity="0.1"/>
<stop offset="0.380986" stop-color="white" stop-opacity="0.47"/>
<stop offset="0.787253" stop-color="white" stop-opacity="0.42"/>
<stop offset="1" stop-color="white" stop-opacity="0.08"/>
</linearGradient>
</defs>
</svg>
