<svg width="132" height="174" viewBox="0 0 132 174" fill="none" xmlns="http://www.w3.org/2000/svg">
<path d="M117.852 157.762C117.852 159.708 116.549 161.66 113.956 163.519C111.375 165.369 107.608 167.055 102.908 168.48C93.514 171.328 80.5067 173.096 66.1177 173.096C51.7288 173.096 38.7214 171.328 29.3278 168.48C24.6279 167.055 20.8608 165.369 18.2799 163.519C15.6868 161.66 14.3838 159.708 14.3838 157.762C14.3838 155.815 15.6868 153.863 18.2799 152.004C20.8608 150.155 24.6279 148.468 29.3278 147.043C38.7214 144.196 51.7288 142.427 66.1177 142.427C80.5067 142.427 93.514 144.196 102.908 147.043C107.608 148.468 111.375 150.155 113.956 152.004C116.549 153.863 117.852 155.815 117.852 157.762Z" fill="white" stroke="#79838D"/>
<path d="M60.6623 65.5618V65.3672L60.5308 65.2238L1.99043 1.39368L130.181 1.39368L71.1861 65.2224L71.0533 65.3661V65.5618L71.0533 148.306L70.4706 142.811L70.4232 142.364H69.9734H61.7372H61.2873L61.24 142.812L60.6623 148.276L60.6623 65.5618Z" fill="white" stroke="#79838D"/>
<path d="M66.3359 62.0618H65.381L12.9965 5.39367L119.174 5.39367L66.3359 62.0618Z" stroke="#F3F9FF"/>
</svg>
