<svg width="149" height="104" viewBox="0 0 149 104" fill="none" xmlns="http://www.w3.org/2000/svg">
<rect width="24.4945" height="17.3196" transform="matrix(0.741809 -0.482913 1.18304 0.182969 38.22 64.371)" fill="#F9FDFF"/>
<rect width="24.4945" height="17.3196" transform="matrix(0.741809 -0.482913 1.18304 0.182969 38.22 64.371)" fill="#F9FDFF"/>
<rect width="24.4945" height="17.3196" transform="matrix(0.741809 -0.482913 1.18304 0.182969 38.22 64.371)" fill="#F9FDFF"/>
<path d="M58.5055 67.5399L76.6758 55.7112L76.6758 74.8086L58.5055 89.1151L58.5055 67.5399Z" fill="#F9FDFF"/>
<path d="M58.5055 67.5399L76.6758 55.7112L76.6758 74.8086L58.5055 89.1151L58.5055 67.5399Z" fill="#F9FDFF"/>
<path d="M58.5055 67.5399L76.6758 55.7112L76.6758 74.8086L58.5055 89.1151L58.5055 67.5399Z" fill="#E9F4FB"/>
<path d="M58.5055 67.5399L38.2511 64.3736L38.2512 85.0968L58.5055 89.1151L58.5055 67.5399Z" fill="#F9FDFF"/>
<path d="M58.5055 67.5399L38.2511 64.3736L38.2512 85.0968L58.5055 89.1151L58.5055 67.5399Z" fill="#F9FDFF"/>
<path d="M58.5055 67.5399L38.2511 64.3736L38.2512 85.0968L58.5055 89.1151L58.5055 67.5399Z" fill="#E2EEF5"/>
<path d="M107.133 78.9712L97.6819 88.3007L76.9729 89.3044L86.4235 79.9749L107.133 78.9712Z" fill="#F9FDFF"/>
<path d="M107.133 78.9712L97.6819 88.3007L76.9729 89.3044L86.4235 79.9749L107.133 78.9712Z" fill="#F9FDFF"/>
<path d="M107.133 78.9712L97.6819 88.3007L76.9729 89.3044L86.4235 79.9749L107.133 78.9712Z" fill="#DDECF5"/>
<path d="M86.6235 79.934L77.2913 89.1465L73.4622 70.4369L82.2976 58.7969L86.6235 79.934Z" fill="#F9FDFF"/>
<path d="M86.6235 79.934L77.2913 89.1465L73.4622 70.4369L82.2976 58.7969L86.6235 79.934Z" fill="#F9FDFF"/>
<path d="M86.6235 79.934L77.2913 89.1465L73.4622 70.4369L82.2976 58.7969L86.6235 79.934Z" fill="#E2EEF5"/>
<path d="M86.6235 79.934L107.102 78.9748L102.946 58.6725L82.2976 58.7969L86.6235 79.934Z" fill="#F9FDFF"/>
<path d="M86.6235 79.934L107.102 78.9748L102.946 58.6725L82.2976 58.7969L86.6235 79.934Z" fill="#F9FDFF"/>
<path d="M86.6235 79.934L107.102 78.9748L102.946 58.6725L82.2976 58.7969L86.6235 79.934Z" fill="#E9F4FB"/>
<path d="M87.6302 34.4848L100.479 31.1305L118.916 40.6158L106.067 43.9701L87.6302 34.4848Z" fill="#F9FDFF"/>
<path d="M87.6302 34.4848L100.479 31.1305L118.916 40.6158L106.067 43.9701L87.6302 34.4848Z" fill="#F9FDFF"/>
<path d="M87.6302 34.4848L100.479 31.1305L118.916 40.6158L106.067 43.9701L87.6302 34.4848Z" fill="#F9FDFF"/>
<path d="M105.873 43.9055L118.561 40.5933L112.522 58.7108L99.0507 64.3737L105.873 43.9055Z" fill="#F9FDFF"/>
<path d="M105.873 43.9055L118.561 40.5933L112.522 58.7108L99.0507 64.3737L105.873 43.9055Z" fill="#F9FDFF"/>
<path d="M105.873 43.9055L118.561 40.5933L112.522 58.7108L99.0507 64.3737L105.873 43.9055Z" fill="#E9F4FB"/>
<path d="M105.873 43.9055L87.6589 34.4971L81.1062 54.1571L99.0507 64.3737L105.873 43.9055Z" fill="#F9FDFF"/>
<path d="M105.873 43.9055L87.6589 34.4971L81.1062 54.1571L99.0507 64.3737L105.873 43.9055Z" fill="#F9FDFF"/>
<path d="M105.873 43.9055L87.6589 34.4971L81.1062 54.1571L99.0507 64.3737L105.873 43.9055Z" fill="#E2EEF5"/>
<path d="M51.7326 61.2414L48.3783 48.3921L57.8635 29.9557L61.2178 42.8049L51.7326 61.2414Z" fill="#F9FDFF"/>
<path d="M51.7326 61.2414L48.3783 48.3921L57.8635 29.9557L61.2178 42.8049L51.7326 61.2414Z" fill="#F9FDFF"/>
<path d="M51.7326 61.2414L48.3783 48.3921L57.8635 29.9557L61.2178 42.8049L51.7326 61.2414Z" fill="#F9FDFF"/>
<path d="M61.1533 42.9987L57.8411 30.3105L75.9586 36.3492L81.6214 49.8208L61.1533 42.9987Z" fill="#F9FDFF"/>
<path d="M61.1533 42.9987L57.8411 30.3105L75.9586 36.3492L81.6214 49.8208L61.1533 42.9987Z" fill="#F9FDFF"/>
<path d="M61.1533 42.9987L57.8411 30.3105L75.9586 36.3492L81.6214 49.8208L61.1533 42.9987Z" fill="#E9F4FB"/>
<path d="M61.1533 42.9987L51.7449 61.2127L71.4049 67.7653L81.6215 49.8208L61.1533 42.9987Z" fill="#F9FDFF"/>
<path d="M61.1533 42.9987L51.7449 61.2127L71.4049 67.7653L81.6215 49.8208L61.1533 42.9987Z" fill="#F9FDFF"/>
<path d="M61.1533 42.9987L51.7449 61.2127L71.4049 67.7653L81.6215 49.8208L61.1533 42.9987Z" fill="#E2EEF5"/>
</svg>
